<svg xmlns="http://www.w3.org/2000/svg" width="184" height="184" viewBox="0 0 184 184">

    <defs>
      <linearGradient id="night" x1="0" y1="0" x2="1" y2="1">
        <stop offset="0" stop-color="#111827"/>
        <stop offset="0.56" stop-color="#19243B"/>
        <stop offset="1" stop-color="#273855"/>
      </linearGradient>
      <linearGradient id="titleFade" x1="0" y1="0" x2="1" y2="0">
        <stop offset="0" stop-color="#111827" stop-opacity="0.98"/>
        <stop offset="0.68" stop-color="#111827" stop-opacity="0.72"/>
        <stop offset="1" stop-color="#111827" stop-opacity="0"/>
      </linearGradient>
      <linearGradient id="titleFadeVertical" x1="0" y1="0" x2="0" y2="1">
        <stop offset="0" stop-color="#FFFFFF"/>
        <stop offset="0.68" stop-color="#FFFFFF"/>
        <stop offset="1" stop-color="#000000"/>
      </linearGradient>
      <mask id="titleMask"><rect width="100%" height="100%" fill="url(#titleFadeVertical)"/></mask>
      <radialGradient id="sun" cx="50%" cy="50%" r="50%">
        <stop offset="0" stop-color="#FFE7A0" stop-opacity="0.95"/>
        <stop offset="0.55" stop-color="#F4BF3A" stop-opacity="0.55"/>
        <stop offset="1" stop-color="#F4BF3A" stop-opacity="0"/>
      </radialGradient>
      <filter id="shadow" x="-60%" y="-60%" width="220%" height="220%">
        <feGaussianBlur in="SourceAlpha" stdDeviation="10"/>
        <feOffset dx="0" dy="12" result="offsetblur"/>
        <feComponentTransfer><feFuncA type="linear" slope="0.45"/></feComponentTransfer>
        <feMerge><feMergeNode/><feMergeNode in="SourceGraphic"/></feMerge>
      </filter>
      <pattern id="grid" width="40" height="40" patternUnits="userSpaceOnUse">
        <path d="M 40 0 L 0 0 0 40" fill="none" stroke="#FFFFFF" stroke-opacity="0.035" stroke-width="2"/>
      </pattern>
    </defs>

    <rect width="184" height="184" rx="33.1" fill="url(#night)"/>
    <path d="M -18.4 143.5 C 40.5 64.4, 101.2 165.6, 202.4 51.5" fill="none" stroke="#F4E8D0" stroke-width="40.5" stroke-linecap="round"/>

    <g transform="translate(97.5 104.9) rotate(-52.0)" filter="url(#shadow)">
      <g opacity="0.5" stroke="#FFF8E8" stroke-width="2.0" stroke-linecap="round">
        <path d="M -9.3 34.9 L -15.9 67.5"/>
        <path d="M 9.3 34.9 L 15.9 67.5"/>
      </g>
      <rect x="-20.6" y="-19.1" width="8.0" height="23.6" rx="3.3" fill="#11151F"/>
      <rect x="12.6" y="-19.1" width="8.0" height="23.6" rx="3.3" fill="#11151F"/>
      <rect x="-20.6" y="7.3" width="8.0" height="23.6" rx="3.3" fill="#11151F"/>
      <rect x="12.6" y="7.3" width="8.0" height="23.6" rx="3.3" fill="#11151F"/>
      <path d="M -14.0 25.9 Q -16.6 0 -8.3 -27.0 Q 0 -39.4 8.3 -27.0 Q 16.6 0 14.0 25.9 Q 0 36.5 -14.0 25.9 Z" fill="#E96B4C" stroke="#FFF8E8" stroke-width="1.8"/>
      <path d="M -9.0 -12.4 Q 0 -23.6 9.0 -12.4 L 6.6 4.5 L -6.6 4.5 Z" fill="#55A8C9" stroke="#111827" stroke-width="1.3"/>
      <rect x="-1.8" y="-31.5" width="3.7" height="59.0" rx="1.7" fill="#F4BF3A"/>
      <circle cx="-8.0" cy="-27.0" r="2.7" fill="#FFF8E8"/>
      <circle cx="8.0" cy="-27.0" r="2.7" fill="#FFF8E8"/>
    </g>

    <text x="18.4" y="44.2" fill="#FFF8E8" font-family="DejaVu Sans, sans-serif" font-size="35.0" font-weight="900">P / C</text>
    <rect x="3" y="3" width="178" height="178" rx="29.4" fill="none" stroke="#F4BF3A" stroke-width="6"/>
    </svg>
